<svg xmlns="http://www.w3.org/2000/svg" width="1024" height="560" viewBox="0 0 1024 560" fill="none">
  <rect width="1024" height="560" fill="#ffffff"/>
  <rect x="0.5" y="0.5" width="1023" height="559" stroke="#e5e7eb"/>

  <text x="90" y="44" fill="#111111" font-family="Arial, Helvetica, sans-serif" font-size="24" font-weight="700">
    Hold-Spin Loop Easing Curve
  </text>
  <text x="90" y="72" fill="#6b7280" font-family="Arial, Helvetica, sans-serif" font-size="14">
    Current curve: easeInOutExpo, slider = 1.0
  </text>

  <g stroke="#e5e7eb" stroke-width="1">
    <line x1="90" y1="420" x2="930" y2="420"/>
    <line x1="90" y1="325" x2="930" y2="325"/>
    <line x1="90" y1="230" x2="930" y2="230"/>
    <line x1="90" y1="135" x2="930" y2="135"/>
    <line x1="90" y1="40" x2="930" y2="40"/>

    <line x1="90" y1="40" x2="90" y2="420"/>
    <line x1="300" y1="40" x2="300" y2="420"/>
    <line x1="510" y1="40" x2="510" y2="420"/>
    <line x1="720" y1="40" x2="720" y2="420"/>
    <line x1="930" y1="40" x2="930" y2="420"/>
  </g>

  <g stroke="#111111" stroke-width="2">
    <line x1="90" y1="420" x2="930" y2="420"/>
    <line x1="90" y1="420" x2="90" y2="40"/>
  </g>

  <g fill="#6b7280" font-family="Arial, Helvetica, sans-serif" font-size="13">
    <text x="54" y="424">0</text>
    <text x="44" y="329">90</text>
    <text x="36" y="234">180</text>
    <text x="36" y="139">270</text>
    <text x="36" y="44">360</text>

    <text x="78" y="446">0%</text>
    <text x="286" y="446">25%</text>
    <text x="496" y="446">50%</text>
    <text x="706" y="446">75%</text>
    <text x="912" y="446">100%</text>
  </g>

  <text x="42" y="24" fill="#6b7280" font-family="Arial, Helvetica, sans-serif" font-size="13">
    Rotation progress (deg)
  </text>
  <text x="760" y="498" fill="#6b7280" font-family="Arial, Helvetica, sans-serif" font-size="13">
    Time through one revolution
  </text>

  <polyline
    points="90.00,420.00 94.20,418.10 98.40,416.20 102.60,414.30 106.80,412.40 111.00,410.50 115.20,408.60 119.40,406.70 123.60,404.80 127.80,402.90 132.00,401.00 136.20,399.10 140.40,397.20 144.60,395.30 148.80,393.40 153.00,391.50 157.20,389.60 161.40,387.70 165.60,385.80 169.80,383.90 174.00,382.00 178.20,380.10 182.40,378.20 186.60,376.30 190.80,374.40 195.00,372.50 199.20,370.60 203.40,368.70 207.60,366.80 211.80,364.90 216.00,363.00 220.20,361.10 224.40,359.20 228.60,357.30 232.80,355.40 237.00,353.50 241.20,351.60 245.40,349.70 249.60,347.80 253.80,345.90 258.00,344.00 262.20,342.10 266.40,340.20 270.60,338.30 274.80,336.40 279.00,334.50 283.20,332.60 287.40,330.70 291.60,328.80 295.80,326.90 300.00,325.00 304.20,323.10 308.40,321.20 312.60,319.30 316.80,317.40 321.00,315.50 325.20,313.60 329.40,311.70 333.60,309.80 337.80,307.90 342.00,306.00 346.20,304.10 350.40,302.20 354.60,300.30 358.80,298.40 363.00,296.50 367.20,294.60 371.40,292.70 375.60,290.80 379.80,288.90 384.00,287.00 388.20,285.10 392.40,283.20 396.60,281.30 400.80,279.40 405.00,277.50 409.20,275.60 413.40,273.70 417.60,271.80 421.80,269.90 426.00,268.00 430.20,266.10 434.40,264.20 438.60,262.30 442.80,260.40 447.00,258.50 451.20,256.60 455.40,254.70 459.60,252.80 463.80,250.90 468.00,249.00 472.20,247.10 476.40,245.20 480.60,243.30 484.80,241.40 489.00,239.50 493.20,237.60 497.40,235.70 501.60,233.80 505.80,231.90 510.00,230.00 514.20,228.10 518.40,226.20 522.60,224.30 526.80,222.40 531.00,220.50 535.20,218.60 539.40,216.70 543.60,214.80 547.80,212.90 552.00,211.00 556.20,209.10 560.40,207.20 564.60,205.30 568.80,203.40 573.00,201.50 577.20,199.60 581.40,197.70 585.60,195.80 589.80,193.90 594.00,192.00 598.20,190.10 602.40,188.20 606.60,186.30 610.80,184.40 615.00,182.50 619.20,180.60 623.40,178.70 627.60,176.80 631.80,174.90 636.00,173.00 640.20,171.10 644.40,169.20 648.60,167.30 652.80,165.40 657.00,163.50 661.20,161.60 665.40,159.70 669.60,157.80 673.80,155.90 678.00,154.00 682.20,152.10 686.40,150.20 690.60,148.30 694.80,146.40 699.00,144.50 703.20,142.60 707.40,140.70 711.60,138.80 715.80,136.90 720.00,135.00 724.20,133.10 728.40,131.20 732.60,129.30 736.80,127.40 741.00,125.50 745.20,123.60 749.40,121.70 753.60,119.80 757.80,117.90 762.00,116.00 766.20,114.10 770.40,112.20 774.60,110.30 778.80,108.40 783.00,106.50 787.20,104.60 791.40,102.70 795.60,100.80 799.80,98.90 804.00,97.00 808.20,95.10 812.40,93.20 816.60,91.30 820.80,89.40 825.00,87.50 829.20,85.60 833.40,83.70 837.60,81.80 841.80,79.90 846.00,78.00 850.20,76.10 854.40,74.20 858.60,72.30 862.80,70.40 867.00,68.50 871.20,66.60 875.40,64.70 879.60,62.80 883.80,60.90 888.00,59.00 892.20,57.10 896.40,55.20 900.60,53.30 904.80,51.40 909.00,49.50 913.20,47.60 917.40,45.70 921.60,43.80 925.80,41.90 930.00,40.00"
    stroke="#c7cbd1"
    stroke-width="2"
    stroke-dasharray="8 8"
    fill="none"
    opacity="0.9"
  />

  <polyline
    points="90.00,420.00 94.20,419.80 98.40,419.79 102.60,419.77 106.80,419.76 111.00,419.74 115.20,419.72 119.40,419.70 123.60,419.68 127.80,419.65 132.00,419.63 136.20,419.60 140.40,419.57 144.60,419.54 148.80,419.51 153.00,419.48 157.20,419.44 161.40,419.40 165.60,419.35 169.80,419.31 174.00,419.26 178.20,419.20 182.40,419.15 186.60,419.09 190.80,419.02 195.00,418.95 199.20,418.88 203.40,418.79 207.60,418.71 211.80,418.62 216.00,418.52 220.20,418.41 224.40,418.29 228.60,418.17 232.80,418.04 237.00,417.90 241.20,417.75 245.40,417.59 249.60,417.42 253.80,417.23 258.00,417.03 262.20,416.82 266.40,416.59 270.60,416.35 274.80,416.08 279.00,415.80 283.20,415.50 287.40,415.18 291.60,414.83 295.80,414.46 300.00,414.06 304.20,413.64 308.40,413.18 312.60,412.69 316.80,412.17 321.00,411.60 325.20,411.00 329.40,410.35 333.60,409.66 337.80,408.92 342.00,408.13 346.20,407.27 350.40,406.36 354.60,405.38 358.80,404.33 363.00,403.21 367.20,402.00 371.40,400.71 375.60,399.32 379.80,397.84 384.00,396.25 388.20,394.55 392.40,392.72 396.60,390.76 400.80,388.66 405.00,386.41 409.20,384.00 413.40,381.42 417.60,378.65 421.80,375.68 426.00,372.50 430.20,369.09 434.40,365.44 438.60,361.52 442.80,357.32 447.00,352.82 451.20,348.00 455.40,342.84 459.60,337.30 463.80,331.36 468.00,325.00 472.20,318.18 476.40,310.87 480.60,303.04 484.80,294.65 489.00,285.65 493.20,276.01 497.40,265.67 501.60,254.60 505.80,242.72 510.00,230.00 514.20,217.28 518.40,205.40 522.60,194.33 526.80,183.99 531.00,174.35 535.20,165.35 539.40,156.96 543.60,149.13 547.80,141.82 552.00,135.00 556.20,128.64 560.40,122.70 564.60,117.16 568.80,112.00 573.00,107.18 577.20,102.68 581.40,98.48 585.60,94.56 589.80,90.91 594.00,87.50 598.20,84.32 602.40,81.35 606.60,78.58 610.80,76.00 615.00,73.59 619.20,71.34 623.40,69.24 627.60,67.28 631.80,65.45 636.00,63.75 640.20,62.16 644.40,60.68 648.60,59.29 652.80,58.00 657.00,56.79 661.20,55.67 665.40,54.62 669.60,53.64 673.80,52.73 678.00,51.88 682.20,51.08 686.40,50.34 690.60,49.65 694.80,49.00 699.00,48.40 703.20,47.83 707.40,47.31 711.60,46.82 715.80,46.36 720.00,45.94 724.20,45.54 728.40,45.17 732.60,44.82 736.80,44.50 741.00,44.20 745.20,43.92 749.40,43.65 753.60,43.41 757.80,43.18 762.00,42.97 766.20,42.77 770.40,42.58 774.60,42.41 778.80,42.25 783.00,42.10 787.20,41.96 791.40,41.83 795.60,41.71 799.80,41.59 804.00,41.48 808.20,41.38 812.40,41.29 816.60,41.21 820.80,41.12 825.00,41.05 829.20,40.98 833.40,40.91 837.60,40.85 841.80,40.80 846.00,40.74 850.20,40.69 854.40,40.65 858.60,40.60 862.80,40.56 867.00,40.52 871.20,40.49 875.40,40.46 879.60,40.43 883.80,40.40 888.00,40.37 892.20,40.35 896.40,40.32 900.60,40.30 904.80,40.28 909.00,40.26 913.20,40.24 917.40,40.23 921.60,40.21 925.80,40.20 930.00,40.00"
    stroke="#111111"
    stroke-width="4"
    stroke-linecap="round"
    stroke-linejoin="round"
    fill="none"
  />

  <g fill="#111111" font-family="Arial, Helvetica, sans-serif" font-size="13">
    <rect x="688" y="66" width="248" height="64" rx="10" fill="#ffffff" stroke="#e5e7eb"/>
    <line x1="708" y1="90" x2="748" y2="90" stroke="#111111" stroke-width="4" stroke-linecap="round"/>
    <text x="760" y="94">Current easing</text>
    <line x1="708" y1="112" x2="748" y2="112" stroke="#c7cbd1" stroke-width="2" stroke-dasharray="8 8" stroke-linecap="round"/>
    <text x="760" y="116">Linear reference</text>
  </g>
</svg>
